<svg width="57" height="54" viewBox="0 0 57 54" fill="none" xmlns="http://www.w3.org/2000/svg">
<path d="M28.5835 0.326172C23.0456 0.326172 17.6321 1.88809 13.0275 4.8144C8.42297 7.74071 4.83414 11.9 2.71488 16.7663C0.595628 21.6326 0.0411347 26.9873 1.12152 32.1533C2.20191 37.3193 4.86865 42.0646 8.78452 45.7891C12.7004 49.5136 17.6895 52.05 23.121 53.0776C28.5524 54.1052 34.1823 53.5778 39.2986 51.5621C44.415 49.5464 48.788 46.133 51.8647 41.7534C54.9413 37.3739 56.5835 32.225 56.5835 26.9577C56.5838 23.4603 55.8598 19.9972 54.4528 16.7659C53.0457 13.5347 50.9833 10.5988 48.3832 8.12573C45.7831 5.6527 42.6963 3.69105 39.299 2.35279C35.9018 1.01453 32.2606 0.325882 28.5835 0.326172ZM37.4861 40.6796C37.3813 40.9281 37.2219 41.1525 37.0184 41.3376C36.815 41.5228 36.5723 41.6644 36.3066 41.7531C36.041 41.8417 35.7584 41.8753 35.478 41.8516C35.1975 41.8279 34.9256 41.7475 34.6805 41.6157L27.0795 35.9981L22.201 40.2788C22.0878 40.3584 21.9553 40.4096 21.8159 40.4277C21.6765 40.4458 21.5344 40.4303 21.403 40.3825L22.3382 32.4238L22.3681 32.4464L22.3872 32.2893C22.3872 32.2893 36.0652 20.4448 36.6224 19.9402C37.1865 19.4369 37.0004 19.3277 37.0004 19.3277C37.0325 18.7137 35.9882 19.3277 35.9882 19.3277L17.8651 30.4172L10.3177 27.9724C10.3177 27.9724 9.15854 27.5769 9.04934 26.7074C8.93454 25.8445 10.3555 25.3758 10.3555 25.3758L40.3631 14.0374C40.3631 14.0374 42.8299 12.9921 42.8299 14.7232L37.4861 40.6796Z" fill="white"/>
</svg>